<svg width="187" height="71" viewBox="0 0 187 71" fill="none" xmlns="http://www.w3.org/2000/svg">
<path d="M20.5947 15.6631C20.2236 13.876 19.54 12.4893 18.5439 11.5029C17.5576 10.5166 16.3711 10.0234 14.9844 10.0234C13.627 10.0234 12.5723 10.3457 11.8203 10.9902C11.0781 11.6348 10.707 12.4941 10.707 13.5684C10.707 14.1641 10.7607 14.6572 10.8682 15.0479C10.9756 15.4385 11.1953 15.8193 11.5273 16.1904C11.8594 16.5518 12.3428 16.874 12.9775 17.1572C13.6123 17.4307 14.4424 17.6943 15.4678 17.9482C16.0244 18.085 16.5078 18.2119 16.918 18.3291C17.3379 18.4463 17.7969 18.6074 18.2949 18.8125C18.8027 19.0176 19.2373 19.2373 19.5986 19.4717C19.9697 19.7061 20.3359 19.999 20.6973 20.3506C21.0684 20.6924 21.3662 21.0732 21.5908 21.4932C21.8252 21.9131 22.0107 22.4111 22.1475 22.9873C22.2939 23.5537 22.3672 24.1738 22.3672 24.8477C22.3672 25.7461 22.2012 26.5762 21.8691 27.3379C21.5371 28.0898 21.1025 28.7246 20.5654 29.2422C20.0283 29.7598 19.4082 30.1992 18.7051 30.5605C18.002 30.9219 17.2891 31.1855 16.5664 31.3516C15.8438 31.5176 15.126 31.6006 14.4131 31.6006C12.2451 31.6006 9.93555 31.0391 7.48438 29.916C7.5332 28.8613 7.55762 28.2119 7.55762 27.9678C7.55762 26.376 7.42578 24.7891 7.16211 23.207C7.26953 23.1387 7.37695 23.1045 7.48438 23.1045C7.62109 23.1045 7.74316 23.1387 7.85059 23.207C8.05566 24.4668 8.39258 25.5801 8.86133 26.5469C9.33984 27.5137 9.88672 28.2803 10.502 28.8467C11.1172 29.4033 11.752 29.8232 12.4062 30.1064C13.0703 30.3799 13.7393 30.5166 14.4131 30.5166C15.9463 30.5166 17.123 30.1211 17.9434 29.3301C18.7734 28.5293 19.1885 27.4746 19.1885 26.166C19.1885 24.8477 18.8809 23.8564 18.2656 23.1924C17.6602 22.5186 16.498 21.9717 14.7793 21.5518C12.6309 21.0146 10.9512 20.2236 9.74023 19.1787C8.53906 18.124 7.93848 16.7324 7.93848 15.0039C7.93848 14.0957 8.08496 13.2852 8.37793 12.5723C8.68066 11.8496 9.06641 11.2734 9.53516 10.8438C10.0137 10.4043 10.5703 10.043 11.2051 9.75977C11.8398 9.4668 12.4648 9.2666 13.0801 9.15918C13.7051 9.04199 14.3398 8.9834 14.9844 8.9834C16.918 8.9834 18.9297 9.43262 21.0195 10.3311C20.9609 10.9072 20.9316 11.5078 20.9316 12.1328C20.9316 13.5977 21.0488 14.7744 21.2832 15.6631C21.1562 15.7119 21.0488 15.7363 20.9609 15.7363C20.8633 15.7363 20.7412 15.7119 20.5947 15.6631ZM24.8281 9.4668C26.4785 9.52539 28.1777 9.55469 29.9258 9.55469C31.6836 9.55469 33.3828 9.52539 35.0234 9.4668C35.0625 9.62305 35.082 9.73047 35.082 9.78906C35.082 9.85742 35.0625 9.97949 35.0234 10.1553C34.7305 10.1846 34.4961 10.209 34.3203 10.2285C34.1445 10.248 33.9004 10.2822 33.5879 10.3311C33.2852 10.3799 33.0361 10.4385 32.8408 10.5068C32.6553 10.5654 32.46 10.6436 32.2549 10.7412C32.0498 10.8389 31.8936 10.9561 31.7861 11.0928C31.6885 11.2295 31.6396 11.3857 31.6396 11.5615C31.6006 12.8604 31.5811 16.4297 31.5811 22.2695C31.5811 25.0527 32.0449 27.0742 32.9727 28.334C33.9102 29.5938 35.4971 30.2236 37.7334 30.2236C39.9893 30.2236 41.7275 29.54 42.9482 28.1729C44.1689 26.7959 44.7793 24.8281 44.7793 22.2695C44.7793 17.6113 44.75 14.1104 44.6914 11.7666C44.6719 10.8877 43.5928 10.3506 41.4541 10.1553C41.415 9.94043 41.3955 9.80859 41.3955 9.75977C41.3955 9.68164 41.415 9.58398 41.4541 9.4668C43.0068 9.52539 44.3936 9.55469 45.6143 9.55469C46.3955 9.55469 47.709 9.52539 49.5547 9.4668C49.5938 9.58398 49.6133 9.68164 49.6133 9.75977C49.6133 9.91602 49.5938 10.0479 49.5547 10.1553C47.4355 10.3506 46.3516 10.8877 46.3027 11.7666C46.2051 14.0908 46.1562 17.5918 46.1562 22.2695C46.1562 23.6953 45.9707 24.9697 45.5996 26.0928C45.2285 27.2061 44.7549 28.0996 44.1787 28.7734C43.6025 29.4473 42.9287 30.0039 42.1572 30.4434C41.3955 30.8828 40.6582 31.1855 39.9453 31.3516C39.2324 31.5176 38.5146 31.6006 37.792 31.6006C36.8252 31.6006 35.9561 31.5469 35.1846 31.4395C34.4131 31.332 33.6611 31.1514 32.9287 30.8975C32.1963 30.6338 31.5615 30.2725 31.0244 29.8135C30.4873 29.3447 30.0137 28.7734 29.6035 28.0996C29.1934 27.4258 28.8857 26.6006 28.6807 25.624C28.4756 24.6475 28.373 23.5293 28.373 22.2695V19.8672C28.373 16.5957 28.3193 13.8271 28.2119 11.5615C28.2021 11.3076 28.0898 11.0928 27.875 10.917C27.6602 10.7314 27.3477 10.5898 26.9375 10.4922C26.5371 10.3945 26.1953 10.3262 25.9121 10.2871C25.6387 10.2383 25.2773 10.1943 24.8281 10.1553C24.7891 9.97949 24.7695 9.85742 24.7695 9.78906C24.7695 9.73047 24.7891 9.62305 24.8281 9.4668ZM51.21 9.4668C53.3975 9.54492 55.0967 9.58398 56.3076 9.58398C57.5186 9.58398 59.2178 9.54492 61.4053 9.4668C61.4443 9.62305 61.4639 9.73047 61.4639 9.78906C61.4639 9.85742 61.4443 9.97949 61.4053 10.1553C60.9561 10.1943 60.5898 10.2383 60.3066 10.2871C60.0332 10.3262 59.6914 10.3945 59.2812 10.4922C58.8809 10.5898 58.5732 10.7314 58.3584 10.917C58.1436 11.0928 58.0312 11.3076 58.0215 11.5615C57.8945 14.8818 57.8311 17.9727 57.8311 20.834C57.8311 22.3086 57.8848 25.3994 57.9922 30.1064H62.5186C63.9541 30.0088 65.2383 29.7988 66.3711 29.4766C67.5039 29.1543 68.4463 28.7441 69.1982 28.2461C69.96 27.7383 70.585 27.2158 71.0732 26.6787C71.5713 26.1318 72.001 25.5215 72.3623 24.8477C72.6162 24.9453 72.7822 25.0771 72.8604 25.2432C72.46 25.9854 72.1475 26.5859 71.9229 27.0449C71.708 27.5039 71.4688 28.1094 71.2051 28.8613C70.9512 29.6035 70.7852 30.3164 70.707 31H57.9922C55.3457 31 53.0752 31.0293 51.1807 31.0879C51.1416 30.9707 51.1221 30.873 51.1221 30.7949C51.1221 30.7266 51.1416 30.5947 51.1807 30.3994C51.6299 30.3604 51.9912 30.3213 52.2646 30.2822C52.5479 30.2334 52.8896 30.1602 53.29 30.0625C53.7002 29.9648 54.0127 29.8281 54.2275 29.6523C54.4424 29.4668 54.5547 29.2471 54.5645 28.9932C54.6816 25.9365 54.7402 22.8555 54.7402 19.75C54.7402 16.5859 54.6914 13.8564 54.5938 11.5615C54.584 11.3076 54.4717 11.0928 54.2568 10.917C54.042 10.7314 53.7295 10.5898 53.3193 10.4922C52.9189 10.3945 52.5771 10.3262 52.2939 10.2871C52.0205 10.2383 51.6592 10.1943 51.21 10.1553C51.1709 9.97949 51.1514 9.85742 51.1514 9.78906C51.1514 9.69141 51.1709 9.58398 51.21 9.4668ZM74.6182 9.4668C76.8057 9.54492 78.5049 9.58398 79.7158 9.58398C80.9268 9.58398 82.626 9.54492 84.8135 9.4668C84.8525 9.62305 84.8721 9.73047 84.8721 9.78906C84.8721 9.85742 84.8525 9.97949 84.8135 10.1553C84.3643 10.1943 83.998 10.2383 83.7148 10.2871C83.4414 10.3262 83.0996 10.3945 82.6895 10.4922C82.2891 10.5898 81.9814 10.7314 81.7666 10.917C81.5518 11.0928 81.4395 11.3076 81.4297 11.5615C81.3027 14.8818 81.2393 17.9727 81.2393 20.834C81.2393 22.3086 81.293 25.3994 81.4004 30.1064H85.9268C87.3623 30.0088 88.6465 29.7988 89.7793 29.4766C90.9121 29.1543 91.8545 28.7441 92.6064 28.2461C93.3682 27.7383 93.9932 27.2158 94.4814 26.6787C94.9795 26.1318 95.4092 25.5215 95.7705 24.8477C96.0244 24.9453 96.1904 25.0771 96.2686 25.2432C95.8682 25.9854 95.5557 26.5859 95.3311 27.0449C95.1162 27.5039 94.877 28.1094 94.6133 28.8613C94.3594 29.6035 94.1934 30.3164 94.1152 31H81.4004C78.7539 31 76.4834 31.0293 74.5889 31.0879C74.5498 30.9707 74.5303 30.873 74.5303 30.7949C74.5303 30.7266 74.5498 30.5947 74.5889 30.3994C75.0381 30.3604 75.3994 30.3213 75.6729 30.2822C75.9561 30.2334 76.2979 30.1602 76.6982 30.0625C77.1084 29.9648 77.4209 29.8281 77.6357 29.6523C77.8506 29.4668 77.9629 29.2471 77.9727 28.9932C78.0898 25.9365 78.1484 22.8555 78.1484 19.75C78.1484 16.5859 78.0996 13.8564 78.002 11.5615C77.9922 11.3076 77.8799 11.0928 77.665 10.917C77.4502 10.7314 77.1377 10.5898 76.7275 10.4922C76.3271 10.3945 75.9854 10.3262 75.7021 10.2871C75.4287 10.2383 75.0674 10.1943 74.6182 10.1553C74.5791 9.97949 74.5596 9.85742 74.5596 9.78906C74.5596 9.69141 74.5791 9.58398 74.6182 9.4668ZM98.0264 9.4668C100.214 9.54492 101.913 9.58398 103.124 9.58398C104.335 9.58398 106.034 9.54492 108.222 9.4668C108.261 9.62305 108.28 9.73047 108.28 9.78906C108.28 9.89648 108.261 10.0186 108.222 10.1553C107.772 10.1943 107.406 10.2383 107.123 10.2871C106.85 10.3262 106.508 10.3945 106.098 10.4922C105.697 10.5898 105.39 10.7314 105.175 10.917C104.96 11.0928 104.848 11.3076 104.838 11.5615C104.711 14.8818 104.647 17.9727 104.647 20.834C104.647 22.9238 104.701 25.6436 104.809 28.9932C104.818 29.2471 104.931 29.4668 105.146 29.6523C105.36 29.8281 105.668 29.9648 106.068 30.0625C106.479 30.1602 106.82 30.2334 107.094 30.2822C107.377 30.3213 107.743 30.3604 108.192 30.3994C108.231 30.5166 108.251 30.6484 108.251 30.7949C108.251 30.873 108.231 30.9707 108.192 31.0879C106.532 31.0293 104.833 31 103.095 31C101.337 31 99.6377 31.0293 97.9971 31.0879C97.958 30.9707 97.9385 30.873 97.9385 30.7949C97.9385 30.6289 97.958 30.4971 97.9971 30.3994C98.29 30.3701 98.5244 30.3457 98.7002 30.3262C98.876 30.3066 99.1152 30.2725 99.418 30.2236C99.7305 30.1748 99.9795 30.1211 100.165 30.0625C100.36 29.9941 100.561 29.9111 100.766 29.8135C100.971 29.7158 101.122 29.5986 101.22 29.4619C101.327 29.3252 101.381 29.1689 101.381 28.9932C101.498 25.9365 101.557 22.8555 101.557 19.75C101.557 16.5859 101.508 13.8564 101.41 11.5615C101.4 11.3076 101.288 11.0928 101.073 10.917C100.858 10.7314 100.546 10.5898 100.136 10.4922C99.7354 10.3945 99.3936 10.3262 99.1104 10.2871C98.8369 10.2383 98.4756 10.1943 98.0264 10.1553C97.9873 9.97949 97.9678 9.85742 97.9678 9.78906C97.9678 9.69141 97.9873 9.58398 98.0264 9.4668ZM109.394 9.4668C111.601 9.54492 113.339 9.58398 114.608 9.58398C116.454 9.58398 118.104 9.54492 119.56 9.4668C119.599 9.62305 119.618 9.73047 119.618 9.78906C119.618 9.89648 119.599 10.0186 119.56 10.1553C118.271 10.1943 117.396 10.292 116.938 10.4482C116.488 10.5947 116.264 10.8535 116.264 11.2246C116.264 11.2344 116.332 11.4785 116.469 11.957L122.562 26.1074H122.709L128.422 11.7666C128.48 11.6201 128.51 11.4297 128.51 11.1953C128.51 10.873 128.334 10.6436 127.982 10.5068C127.631 10.3701 127.025 10.2529 126.166 10.1553C126.127 9.94043 126.107 9.80859 126.107 9.75977C126.107 9.68164 126.127 9.58398 126.166 9.4668C127.426 9.52539 128.563 9.55469 129.579 9.55469C130.692 9.55469 131.806 9.52539 132.919 9.4668C132.958 9.58398 132.978 9.68164 132.978 9.75977C132.978 9.91602 132.958 10.0479 132.919 10.1553C132.187 10.2236 131.576 10.375 131.088 10.6094C130.609 10.834 130.238 11.2197 129.975 11.7666L122.05 31.4248H121.361L112.851 11.957C112.401 10.9316 111.249 10.3311 109.394 10.1553C109.354 9.97949 109.335 9.85742 109.335 9.78906C109.335 9.69141 109.354 9.58398 109.394 9.4668ZM144.418 9.24707C144.564 9.13965 144.721 9.07129 144.887 9.04199L152.899 29.0518C152.997 29.2959 153.158 29.5059 153.383 29.6816C153.607 29.8477 153.886 29.9795 154.218 30.0771C154.56 30.165 154.853 30.2334 155.097 30.2822C155.351 30.3213 155.658 30.3604 156.02 30.3994C156.059 30.5557 156.078 30.6875 156.078 30.7949C156.078 30.9121 156.059 31.0195 156.02 31.1172C153.91 31.0391 152.333 31 151.288 31C150.155 31 148.515 31.0391 146.366 31.1172C146.327 31 146.308 30.8828 146.308 30.7656C146.308 30.6387 146.327 30.5166 146.366 30.3994C148.339 30.1846 149.325 29.8135 149.325 29.2861C149.325 29.1201 149.306 28.9492 149.267 28.7734L147.143 23.3242C146.498 23.3047 145.629 23.2949 144.535 23.2949C144.018 23.2949 142.675 23.3145 140.507 23.3535L138.266 29.0518V29.2275C138.266 29.3252 138.28 29.418 138.31 29.5059C138.349 29.5938 138.407 29.6719 138.485 29.7402C138.573 29.8086 138.656 29.8672 138.734 29.916C138.812 29.9648 138.92 30.0137 139.057 30.0625C139.203 30.1016 139.325 30.1357 139.423 30.165C139.53 30.1846 139.672 30.209 139.848 30.2383C140.033 30.2676 140.175 30.292 140.272 30.3115C140.37 30.3213 140.512 30.3359 140.697 30.3555C140.893 30.375 141.029 30.3896 141.107 30.3994C141.146 30.5557 141.166 30.6875 141.166 30.7949C141.166 30.8535 141.146 30.9609 141.107 31.1172C138.92 31.0391 137.689 31 137.416 31C136.889 31 135.531 31.0391 133.344 31.1172C133.305 31 133.285 30.8828 133.285 30.7656C133.285 30.6387 133.305 30.5166 133.344 30.3994C135.375 30.165 136.532 29.667 136.815 28.9053L143.114 13.0264L142.792 12.1621C143.349 11.791 143.734 11.3906 143.949 10.9609C144.174 10.5313 144.33 9.95996 144.418 9.24707ZM144.535 22.1523C145.434 22.1523 146.142 22.1426 146.659 22.123L143.876 14.916H143.817L141.02 22.0938C141.938 22.1328 143.109 22.1523 144.535 22.1523ZM157.821 9.4668C159.423 9.54492 161.444 9.58398 163.886 9.58398C170.79 18.2363 174.501 22.8457 175.019 23.4121C175.536 23.9688 175.795 24.2471 175.795 24.2471H175.912C175.951 22.3721 175.971 20.8633 175.971 19.7207C175.971 17.4648 175.922 14.8135 175.824 11.7666C175.805 10.8877 174.721 10.3506 172.572 10.1553C172.533 9.94043 172.514 9.80859 172.514 9.75977C172.514 9.68164 172.533 9.58398 172.572 9.4668C174.145 9.52539 175.536 9.55469 176.747 9.55469C177.528 9.55469 178.837 9.52539 180.673 9.4668C180.712 9.58398 180.731 9.68164 180.731 9.75977C180.731 9.91602 180.712 10.0479 180.673 10.1553C178.534 10.3506 177.455 10.8877 177.436 11.7666C177.318 14.8232 177.26 17.8359 177.26 20.8047C177.26 25.3457 177.309 28.7637 177.406 31.0586L177.143 31.0879L162.582 13.1729H162.436C162.377 15.7021 162.348 18.2559 162.348 20.834C162.348 23.0996 162.396 25.7461 162.494 28.7734C162.514 29.6621 163.593 30.2041 165.731 30.3994C165.78 30.5654 165.805 30.6973 165.805 30.7949C165.805 30.8926 165.78 30.9902 165.731 31.0879C164.179 31.0293 162.792 31 161.571 31C160.79 31 159.481 31.0293 157.646 31.0879C157.597 30.9902 157.572 30.8926 157.572 30.7949C157.572 30.6289 157.597 30.4971 157.646 30.3994C159.804 30.1943 160.883 29.6523 160.883 28.7734C161 25.7266 161.059 22.7188 161.059 19.75C161.059 16.5273 161.02 13.7295 160.941 11.3564C160.121 10.6436 159.081 10.2432 157.821 10.1553C157.763 10.0283 157.733 9.91602 157.733 9.81836C157.733 9.67188 157.763 9.55469 157.821 9.4668Z" fill="black"/>
<g filter="url(#filter0_d_9_19)">
<path d="M4.62968 38.7734C6.09843 38.8359 7.94609 38.8672 10.1727 38.8672L14.7078 51.1484H14.7664L19.4891 38.8672H20.8367C21.8055 38.8672 23.1727 38.8359 24.9383 38.7734C24.9695 38.8984 24.9852 38.9844 24.9852 39.0312C24.9852 39.0859 24.9695 39.1836 24.9383 39.3242C24.657 39.3477 24.4305 39.3711 24.2586 39.3945C24.0867 39.418 23.8562 39.457 23.5672 39.5117C23.2859 39.5664 23.0594 39.6328 22.8875 39.7109C22.7156 39.7812 22.5633 39.8828 22.4305 40.0156C22.2977 40.1406 22.2273 40.2852 22.2195 40.4492C22.1414 42.2852 22.1023 44.4688 22.1023 47C22.1023 49.5703 22.1531 52.0352 22.2547 54.3945C22.2625 54.5977 22.3523 54.7734 22.5242 54.9219C22.6961 55.0625 22.9422 55.1719 23.2625 55.25C23.5906 55.3281 23.8641 55.3867 24.0828 55.4258C24.3094 55.457 24.6023 55.4883 24.9617 55.5195C24.993 55.6445 25.0086 55.75 25.0086 55.8359C25.0086 55.8984 24.993 55.9766 24.9617 56.0703C23.6414 56.0234 22.282 56 20.8836 56C19.4773 56 18.118 56.0234 16.8055 56.0703C16.7742 55.9766 16.7586 55.8984 16.7586 55.8359C16.7586 55.7031 16.7742 55.5977 16.8055 55.5195C17.1648 55.4883 17.4539 55.457 17.6727 55.4258C17.8992 55.3867 18.1727 55.3281 18.493 55.25C18.8211 55.1719 19.0711 55.0625 19.243 54.9219C19.4148 54.7734 19.5047 54.5977 19.5125 54.3945C19.5906 51.957 19.6297 49.7812 19.6297 47.8672C19.6297 46.0312 19.5906 43.9414 19.5125 41.5977H19.4187L14.0633 55.707H13.9461L8.23906 41.3164H8.11015C8.04765 43.2148 8.0164 45.3984 8.0164 47.8672C8.0164 49.6797 8.05547 51.7969 8.13359 54.2188C8.14922 54.9297 9.0125 55.3633 10.7234 55.5195C10.7625 55.6523 10.782 55.7578 10.782 55.8359C10.782 55.9141 10.7625 55.9922 10.7234 56.0703C9.48125 56.0234 8.37187 56 7.39531 56C6.77031 56 5.72343 56.0234 4.25468 56.0703C4.21562 55.9922 4.19609 55.9141 4.19609 55.8359C4.19609 55.7031 4.21562 55.5977 4.25468 55.5195C5.98125 55.3555 6.84453 54.9219 6.84453 54.2188C6.93828 51.7812 6.98515 49.375 6.98515 47C6.98515 45.2891 6.96172 43.4727 6.91484 41.5508C6.90703 41.2227 6.8875 40.9492 6.85625 40.7305C6.825 40.5039 6.7664 40.3086 6.68047 40.1445C6.59453 39.9805 6.50468 39.8516 6.41093 39.7578C6.31718 39.6641 6.17265 39.582 5.97734 39.5117C5.78203 39.4336 5.59062 39.3789 5.40312 39.3477C5.22343 39.3086 4.96562 39.2656 4.62968 39.2188C4.59843 39.1562 4.58281 39.0859 4.58281 39.0078C4.58281 38.9141 4.59843 38.8359 4.62968 38.7734ZM29.1781 38.7734C30.9281 38.8359 32.2875 38.8672 33.2562 38.8672C34.225 38.8672 35.5844 38.8359 37.3344 38.7734C37.3656 38.8984 37.3812 38.9844 37.3812 39.0312C37.3812 39.1172 37.3656 39.2148 37.3344 39.3242C36.975 39.3555 36.682 39.3906 36.4555 39.4297C36.2367 39.4609 35.9633 39.5156 35.6352 39.5938C35.3148 39.6719 35.0687 39.7852 34.8969 39.9336C34.725 40.0742 34.6352 40.2461 34.6273 40.4492C34.5258 43.1055 34.475 45.5781 34.475 47.8672C34.475 49.5391 34.518 51.7148 34.6039 54.3945C34.6117 54.5977 34.7016 54.7734 34.8734 54.9219C35.0453 55.0625 35.2914 55.1719 35.6117 55.25C35.9398 55.3281 36.2133 55.3867 36.432 55.4258C36.6586 55.457 36.9516 55.4883 37.3109 55.5195C37.3422 55.6133 37.3578 55.7188 37.3578 55.8359C37.3578 55.8984 37.3422 55.9766 37.3109 56.0703C35.9828 56.0234 34.6234 56 33.2328 56C31.8266 56 30.4672 56.0234 29.1547 56.0703C29.1234 55.9766 29.1078 55.8984 29.1078 55.8359C29.1078 55.7031 29.1234 55.5977 29.1547 55.5195C29.3891 55.4961 29.5766 55.4766 29.7172 55.4609C29.8578 55.4453 30.0492 55.418 30.2914 55.3789C30.5414 55.3398 30.7406 55.2969 30.8891 55.25C31.0453 55.1953 31.2055 55.1289 31.3695 55.0508C31.5336 54.9727 31.6547 54.8789 31.7328 54.7695C31.8187 54.6602 31.8617 54.5352 31.8617 54.3945C31.9555 51.9492 32.0023 49.4844 32.0023 47C32.0023 44.4688 31.9633 42.2852 31.8852 40.4492C31.8773 40.2461 31.7875 40.0742 31.6156 39.9336C31.4437 39.7852 31.1937 39.6719 30.8656 39.5938C30.5453 39.5156 30.2719 39.4609 30.0453 39.4297C29.8266 39.3906 29.5375 39.3555 29.1781 39.3242C29.1469 39.1836 29.1312 39.0859 29.1312 39.0312C29.1312 38.9531 29.1469 38.8672 29.1781 38.7734ZM41.5391 38.7734C42.8203 38.8359 44.4375 38.8672 46.3906 38.8672C51.9141 45.7891 54.8828 49.4766 55.2969 49.9297C55.7109 50.375 55.918 50.5977 55.918 50.5977H56.0117C56.043 49.0977 56.0586 47.8906 56.0586 46.9766C56.0586 45.1719 56.0195 43.0508 55.9414 40.6133C55.9258 39.9102 55.0586 39.4805 53.3398 39.3242C53.3086 39.1523 53.293 39.0469 53.293 39.0078C53.293 38.9453 53.3086 38.8672 53.3398 38.7734C54.5977 38.8203 55.7109 38.8438 56.6797 38.8438C57.3047 38.8438 58.3516 38.8203 59.8203 38.7734C59.8516 38.8672 59.8672 38.9453 59.8672 39.0078C59.8672 39.1328 59.8516 39.2383 59.8203 39.3242C58.1094 39.4805 57.2461 39.9102 57.2305 40.6133C57.1367 43.0586 57.0898 45.4688 57.0898 47.8438C57.0898 51.4766 57.1289 54.2109 57.207 56.0469L56.9961 56.0703L45.3477 41.7383H45.2305C45.1836 43.7617 45.1602 45.8047 45.1602 47.8672C45.1602 49.6797 45.1992 51.7969 45.2773 54.2188C45.293 54.9297 46.1562 55.3633 47.8672 55.5195C47.9062 55.6523 47.9258 55.7578 47.9258 55.8359C47.9258 55.9141 47.9062 55.9922 47.8672 56.0703C46.625 56.0234 45.5156 56 44.5391 56C43.9141 56 42.8672 56.0234 41.3984 56.0703C41.3594 55.9922 41.3398 55.9141 41.3398 55.8359C41.3398 55.7031 41.3594 55.5977 41.3984 55.5195C43.125 55.3555 43.9883 54.9219 43.9883 54.2188C44.082 51.7812 44.1289 49.375 44.1289 47C44.1289 44.4219 44.0977 42.1836 44.0352 40.2852C43.3789 39.7148 42.5469 39.3945 41.5391 39.3242C41.4922 39.2227 41.4687 39.1328 41.4687 39.0547C41.4687 38.9375 41.4922 38.8438 41.5391 38.7734ZM63.9078 38.7734C65.6578 38.8359 67.0172 38.8672 67.9859 38.8672C68.9547 38.8672 70.3141 38.8359 72.0641 38.7734C72.0953 38.8984 72.1109 38.9844 72.1109 39.0312C72.1109 39.1172 72.0953 39.2148 72.0641 39.3242C71.7047 39.3555 71.4117 39.3906 71.1852 39.4297C70.9664 39.4609 70.693 39.5156 70.3648 39.5938C70.0445 39.6719 69.7984 39.7852 69.6266 39.9336C69.4547 40.0742 69.3648 40.2461 69.357 40.4492C69.2555 43.1055 69.2047 45.5781 69.2047 47.8672C69.2047 49.5391 69.2477 51.7148 69.3336 54.3945C69.3414 54.5977 69.4312 54.7734 69.6031 54.9219C69.775 55.0625 70.0211 55.1719 70.3414 55.25C70.6695 55.3281 70.943 55.3867 71.1617 55.4258C71.3883 55.457 71.6812 55.4883 72.0406 55.5195C72.0719 55.6133 72.0875 55.7188 72.0875 55.8359C72.0875 55.8984 72.0719 55.9766 72.0406 56.0703C70.7125 56.0234 69.3531 56 67.9625 56C66.5562 56 65.1969 56.0234 63.8844 56.0703C63.8531 55.9766 63.8375 55.8984 63.8375 55.8359C63.8375 55.7031 63.8531 55.5977 63.8844 55.5195C64.1187 55.4961 64.3062 55.4766 64.4469 55.4609C64.5875 55.4453 64.7789 55.418 65.0211 55.3789C65.2711 55.3398 65.4703 55.2969 65.6187 55.25C65.775 55.1953 65.9352 55.1289 66.0992 55.0508C66.2633 54.9727 66.3844 54.8789 66.4625 54.7695C66.5484 54.6602 66.5914 54.5352 66.5914 54.3945C66.6852 51.9492 66.732 49.4844 66.732 47C66.732 44.4688 66.693 42.2852 66.6148 40.4492C66.607 40.2461 66.5172 40.0742 66.3453 39.9336C66.1734 39.7852 65.9234 39.6719 65.5953 39.5938C65.275 39.5156 65.0016 39.4609 64.775 39.4297C64.5562 39.3906 64.2672 39.3555 63.9078 39.3242C63.8766 39.1836 63.8609 39.0859 63.8609 39.0312C63.8609 38.9531 63.8766 38.8672 63.9078 38.7734ZM87.5422 43.7305C87.2453 42.3008 86.6984 41.1914 85.9016 40.4023C85.1125 39.6133 84.1633 39.2188 83.0539 39.2188C81.968 39.2188 81.1242 39.4766 80.5227 39.9922C79.9289 40.5078 79.632 41.1953 79.632 42.0547C79.632 42.5312 79.675 42.9258 79.7609 43.2383C79.8469 43.5508 80.0227 43.8555 80.2883 44.1523C80.5539 44.4414 80.9406 44.6992 81.4484 44.9258C81.9562 45.1445 82.6203 45.3555 83.4406 45.5586C83.8859 45.668 84.2727 45.7695 84.6008 45.8633C84.9367 45.957 85.3039 46.0859 85.7023 46.25C86.1086 46.4141 86.4562 46.5898 86.7453 46.7773C87.0422 46.9648 87.3352 47.1992 87.6242 47.4805C87.9211 47.7539 88.1594 48.0586 88.3391 48.3945C88.5266 48.7305 88.675 49.1289 88.7844 49.5898C88.9016 50.043 88.9602 50.5391 88.9602 51.0781C88.9602 51.7969 88.8273 52.4609 88.5617 53.0703C88.2961 53.6719 87.9484 54.1797 87.5187 54.5938C87.0891 55.0078 86.593 55.3594 86.0305 55.6484C85.468 55.9375 84.8977 56.1484 84.3195 56.2812C83.7414 56.4141 83.1672 56.4805 82.5969 56.4805C80.8625 56.4805 79.0148 56.0312 77.0539 55.1328C77.093 54.2891 77.1125 53.7695 77.1125 53.5742C77.1125 52.3008 77.007 51.0312 76.7961 49.7656C76.882 49.7109 76.968 49.6836 77.0539 49.6836C77.1633 49.6836 77.2609 49.7109 77.3469 49.7656C77.5109 50.7734 77.7805 51.6641 78.1555 52.4375C78.5383 53.2109 78.9758 53.8242 79.468 54.2773C79.9602 54.7227 80.468 55.0586 80.9914 55.2852C81.5227 55.5039 82.0578 55.6133 82.5969 55.6133C83.8234 55.6133 84.7648 55.2969 85.4211 54.6641C86.0852 54.0234 86.4172 53.1797 86.4172 52.1328C86.4172 51.0781 86.1711 50.2852 85.6789 49.7539C85.1945 49.2148 84.2648 48.7773 82.8898 48.4414C81.1711 48.0117 79.8273 47.3789 78.8586 46.543C77.8977 45.6992 77.4172 44.5859 77.4172 43.2031C77.4172 42.4766 77.5344 41.8281 77.7687 41.2578C78.0109 40.6797 78.3195 40.2188 78.6945 39.875C79.0773 39.5234 79.5227 39.2344 80.0305 39.0078C80.5383 38.7734 81.0383 38.6133 81.5305 38.5273C82.0305 38.4336 82.5383 38.3867 83.0539 38.3867C84.6008 38.3867 86.2102 38.7461 87.882 39.4648C87.8352 39.9258 87.8117 40.4062 87.8117 40.9062C87.8117 42.0781 87.9055 43.0195 88.093 43.7305C87.9914 43.7695 87.9055 43.7891 87.8352 43.7891C87.757 43.7891 87.6594 43.7695 87.5422 43.7305ZM94.6531 38.7734C95.5047 38.8047 96.5672 38.8281 97.8406 38.8438C99.1141 38.8594 100.61 38.8672 102.329 38.8672C104.048 38.8672 105.544 38.8594 106.817 38.8438C108.098 38.8281 109.169 38.8047 110.028 38.7734C110.075 39.1094 110.134 39.4336 110.204 39.7461C110.274 40.0508 110.391 40.3906 110.555 40.7656L110.907 41.5625L111.762 43.2266C111.708 43.3516 111.571 43.457 111.352 43.543C111.087 43.0508 110.762 42.582 110.38 42.1367C109.997 41.6914 109.509 41.2891 108.915 40.9297C108.329 40.5703 107.61 40.2695 106.759 40.0273C105.915 39.7852 104.895 39.6211 103.7 39.5352C103.661 40.5117 103.63 41.6172 103.606 42.8516C103.591 44.0781 103.583 45.4453 103.583 46.9531C103.583 48.4688 103.591 49.8438 103.606 51.0781C103.63 52.3125 103.661 53.418 103.7 54.3945C103.708 54.582 103.782 54.7422 103.923 54.875C104.063 55 104.255 55.1055 104.497 55.1914C104.747 55.2773 105.032 55.3477 105.352 55.4023C105.68 55.4492 106.032 55.4883 106.407 55.5195C106.438 55.6523 106.454 55.7578 106.454 55.8359C106.454 55.9062 106.438 55.9844 106.407 56.0703C105.095 56.0234 103.735 56 102.329 56C100.93 56 99.5711 56.0234 98.2508 56.0703C98.2195 55.9844 98.2039 55.9062 98.2039 55.8359C98.2039 55.7578 98.2195 55.6523 98.2508 55.5195L98.8133 55.4609C99.0164 55.4375 99.243 55.4062 99.493 55.3672C99.743 55.3203 99.9734 55.2578 100.184 55.1797C100.403 55.1016 100.587 55.0039 100.735 54.8867C100.884 54.7695 100.958 54.625 100.958 54.4531V54.3945C100.997 52.9648 101.028 51.6328 101.052 50.3984C101.075 49.1641 101.087 48.0156 101.087 46.9531C101.087 45.8984 101.075 44.7578 101.052 43.5312C101.028 42.2969 100.997 40.9648 100.958 39.5352C99.8328 39.5977 98.8523 39.75 98.0164 39.9922C97.1883 40.2266 96.4695 40.5234 95.8602 40.8828C95.2508 41.2344 94.743 41.6406 94.3367 42.1016C93.9305 42.5547 93.5945 43.0352 93.3289 43.543C93.1102 43.457 92.9734 43.3516 92.9187 43.2266L93.4461 42.2305L93.6922 41.7266C93.7937 41.5156 93.8953 41.3008 93.9969 41.082C94.0984 40.8633 94.1922 40.6367 94.2781 40.4023C94.3719 40.1602 94.45 39.9062 94.5125 39.6406C94.575 39.3672 94.6219 39.0781 94.6531 38.7734ZM115.194 38.7734C116.881 38.8359 118.241 38.8672 119.272 38.8672C119.662 38.8672 120.291 38.8516 121.159 38.8203C122.026 38.7891 122.694 38.7734 123.162 38.7734C124.897 38.7734 126.26 39.2109 127.252 40.0859C128.252 40.9609 128.752 42.0977 128.752 43.4961C128.752 44.6211 128.42 45.6289 127.756 46.5195C127.092 47.4023 126.186 48.0352 125.037 48.418C125.561 49.3555 126.28 50.418 127.194 51.6055C128.077 52.7852 128.916 53.7109 129.713 54.3828C130.518 55.0547 131.381 55.4336 132.303 55.5195C132.334 55.6445 132.35 55.7422 132.35 55.8125C132.35 55.8906 132.334 55.9766 132.303 56.0703C131.834 56.0469 131.334 56.0312 130.803 56.0234C130.272 56.0156 129.678 56.0117 129.022 56.0117C128.373 56.0117 127.873 56.0078 127.522 56C125.42 53.5547 123.733 51.1484 122.459 48.7812C121.889 48.7812 121.233 48.6914 120.491 48.5117C120.491 50.0273 120.534 51.9883 120.62 54.3945C120.627 54.5977 120.717 54.7734 120.889 54.9219C121.061 55.0625 121.307 55.1719 121.627 55.25C121.955 55.3281 122.229 55.3867 122.448 55.4258C122.674 55.457 122.967 55.4883 123.327 55.5195C123.358 55.6758 123.373 55.7812 123.373 55.8359C123.373 55.8984 123.358 55.9766 123.327 56.0703C121.998 56.0234 120.639 56 119.248 56C117.842 56 116.483 56.0234 115.17 56.0703C115.139 55.9766 115.123 55.8984 115.123 55.8359C115.123 55.7031 115.139 55.5977 115.17 55.5195C115.405 55.4961 115.592 55.4766 115.733 55.4609C115.873 55.4453 116.065 55.418 116.307 55.3789C116.557 55.3398 116.756 55.2969 116.905 55.25C117.061 55.1953 117.221 55.1289 117.385 55.0508C117.549 54.9727 117.67 54.8789 117.748 54.7695C117.834 54.6602 117.877 54.5352 117.877 54.3945C117.971 51.9492 118.018 49.4844 118.018 47C118.018 44.4688 117.979 42.2852 117.901 40.4492C117.893 40.2461 117.803 40.0742 117.631 39.9336C117.459 39.7852 117.209 39.6719 116.881 39.5938C116.561 39.5156 116.287 39.4609 116.061 39.4297C115.842 39.3906 115.553 39.3555 115.194 39.3242C115.162 39.1836 115.147 39.0859 115.147 39.0312C115.147 38.9844 115.162 38.8984 115.194 38.7734ZM120.643 39.582H120.62C120.534 42.4648 120.491 45.1445 120.491 47.6211C121.037 47.8008 121.592 47.8906 122.155 47.8906C122.67 47.8906 123.131 47.8047 123.537 47.6328C123.952 47.4531 124.291 47.2188 124.557 46.9297C124.823 46.6406 125.041 46.3008 125.213 45.9102C125.393 45.5195 125.518 45.125 125.588 44.7266C125.666 44.3281 125.705 43.918 125.705 43.4961C125.705 42.332 125.385 41.3828 124.745 40.6484C124.112 39.9062 123.209 39.5352 122.037 39.5352C121.459 39.5352 120.995 39.5508 120.643 39.582ZM135.781 38.7734C137.531 38.8359 138.891 38.8672 139.859 38.8672C140.828 38.8672 142.188 38.8359 143.938 38.7734C143.969 38.8984 143.984 38.9844 143.984 39.0312C143.984 39.1172 143.969 39.2148 143.938 39.3242C143.578 39.3555 143.285 39.3906 143.059 39.4297C142.84 39.4609 142.566 39.5156 142.238 39.5938C141.918 39.6719 141.672 39.7852 141.5 39.9336C141.328 40.0742 141.238 40.2461 141.23 40.4492C141.129 43.1055 141.078 45.5781 141.078 47.8672C141.078 49.5391 141.121 51.7148 141.207 54.3945C141.215 54.5977 141.305 54.7734 141.477 54.9219C141.648 55.0625 141.895 55.1719 142.215 55.25C142.543 55.3281 142.816 55.3867 143.035 55.4258C143.262 55.457 143.555 55.4883 143.914 55.5195C143.945 55.6133 143.961 55.7188 143.961 55.8359C143.961 55.8984 143.945 55.9766 143.914 56.0703C142.586 56.0234 141.227 56 139.836 56C138.43 56 137.07 56.0234 135.758 56.0703C135.727 55.9766 135.711 55.8984 135.711 55.8359C135.711 55.7031 135.727 55.5977 135.758 55.5195C135.992 55.4961 136.18 55.4766 136.32 55.4609C136.461 55.4453 136.652 55.418 136.895 55.3789C137.145 55.3398 137.344 55.2969 137.492 55.25C137.648 55.1953 137.809 55.1289 137.973 55.0508C138.137 54.9727 138.258 54.8789 138.336 54.7695C138.422 54.6602 138.465 54.5352 138.465 54.3945C138.559 51.9492 138.605 49.4844 138.605 47C138.605 44.4688 138.566 42.2852 138.488 40.4492C138.48 40.2461 138.391 40.0742 138.219 39.9336C138.047 39.7852 137.797 39.6719 137.469 39.5938C137.148 39.5156 136.875 39.4609 136.648 39.4297C136.43 39.3906 136.141 39.3555 135.781 39.3242C135.75 39.1836 135.734 39.0859 135.734 39.0312C135.734 38.9531 135.75 38.8672 135.781 38.7734ZM148.142 38.7734C149.892 38.8359 151.259 38.8672 152.244 38.8672C158.947 38.8281 162.658 38.7969 163.377 38.7734C163.478 39.5547 163.677 40.2969 163.974 41C164.271 41.6953 164.65 42.4375 165.111 43.2266C165.048 43.3594 164.912 43.4648 164.701 43.543C164.42 43.0117 164.08 42.5391 163.681 42.125C163.283 41.7109 162.779 41.3203 162.17 40.9531C161.568 40.5859 160.814 40.2852 159.908 40.0508C159.009 39.8164 157.982 39.6602 156.826 39.582H153.591C153.49 42.8867 153.439 45.375 153.439 47.0469H156.779C157.005 47.0469 157.216 47.0312 157.412 47C157.615 46.9609 157.802 46.8984 157.974 46.8125C158.146 46.7188 158.298 46.6328 158.431 46.5547C158.572 46.4688 158.712 46.3438 158.853 46.1797C158.994 46.0078 159.111 45.8672 159.205 45.7578C159.298 45.6406 159.412 45.4648 159.545 45.2305C159.677 44.9961 159.779 44.8125 159.849 44.6797C159.92 44.5469 160.025 44.3398 160.166 44.0586C160.314 43.7773 160.427 43.5664 160.505 43.4258C160.748 43.5195 160.896 43.6211 160.951 43.7305C160.623 44.3086 160.345 44.9492 160.119 45.6523C159.892 46.3555 159.779 46.9414 159.779 47.4102C159.779 48.5195 160.17 49.7422 160.951 51.0781C160.888 51.2031 160.74 51.3086 160.505 51.3945C160.42 51.2383 160.298 51.0156 160.142 50.7266C159.994 50.4297 159.877 50.2031 159.791 50.0469C159.705 49.8906 159.587 49.6914 159.439 49.4492C159.291 49.207 159.158 49.0195 159.041 48.8867C158.931 48.7539 158.787 48.6055 158.607 48.4414C158.435 48.2773 158.263 48.1562 158.091 48.0781C157.92 47.9922 157.72 47.9219 157.494 47.8672C157.275 47.8047 157.037 47.7734 156.779 47.7734H153.439C153.439 49.0156 153.482 51.5195 153.568 55.2852H157.306C158.462 55.207 159.49 55.0508 160.388 54.8164C161.295 54.582 162.048 54.2812 162.65 53.9141C163.259 53.5469 163.763 53.1562 164.162 52.7422C164.56 52.3281 164.9 51.8555 165.181 51.3242C165.392 51.4023 165.529 51.5039 165.591 51.6289C165.552 51.707 165.451 51.8945 165.287 52.1914C165.123 52.4883 165.013 52.6914 164.959 52.8008C164.904 52.9023 164.81 53.0859 164.677 53.3516C164.552 53.6094 164.459 53.8203 164.396 53.9844C164.334 54.1406 164.259 54.3398 164.173 54.582C164.095 54.8242 164.029 55.0625 163.974 55.2969C163.927 55.5234 163.888 55.7578 163.857 56H153.568C151.451 56 149.634 56.0234 148.119 56.0703C148.087 55.9766 148.072 55.8984 148.072 55.8359C148.072 55.7812 148.087 55.6758 148.119 55.5195C148.478 55.4883 148.767 55.457 148.986 55.4258C149.212 55.3867 149.486 55.3281 149.806 55.25C150.134 55.1719 150.384 55.0625 150.556 54.9219C150.728 54.7734 150.818 54.5977 150.826 54.3945C150.92 51.9492 150.966 49.4844 150.966 47C150.966 44.4688 150.927 42.2852 150.849 40.4492C150.841 40.2461 150.752 40.0742 150.58 39.9336C150.408 39.7852 150.158 39.6719 149.83 39.5938C149.509 39.5156 149.236 39.4609 149.009 39.4297C148.791 39.3906 148.502 39.3555 148.142 39.3242C148.111 39.1836 148.095 39.0859 148.095 39.0312C148.095 38.9844 148.111 38.8984 148.142 38.7734ZM180.659 43.7305C180.363 42.3008 179.816 41.1914 179.019 40.4023C178.23 39.6133 177.28 39.2188 176.171 39.2188C175.085 39.2188 174.241 39.4766 173.64 39.9922C173.046 40.5078 172.749 41.1953 172.749 42.0547C172.749 42.5312 172.792 42.9258 172.878 43.2383C172.964 43.5508 173.14 43.8555 173.405 44.1523C173.671 44.4414 174.058 44.6992 174.566 44.9258C175.073 45.1445 175.738 45.3555 176.558 45.5586C177.003 45.668 177.39 45.7695 177.718 45.8633C178.054 45.957 178.421 46.0859 178.82 46.25C179.226 46.4141 179.573 46.5898 179.863 46.7773C180.159 46.9648 180.452 47.1992 180.741 47.4805C181.038 47.7539 181.277 48.0586 181.456 48.3945C181.644 48.7305 181.792 49.1289 181.902 49.5898C182.019 50.043 182.077 50.5391 182.077 51.0781C182.077 51.7969 181.945 52.4609 181.679 53.0703C181.413 53.6719 181.066 54.1797 180.636 54.5938C180.206 55.0078 179.71 55.3594 179.148 55.6484C178.585 55.9375 178.015 56.1484 177.437 56.2812C176.859 56.4141 176.284 56.4805 175.714 56.4805C173.98 56.4805 172.132 56.0312 170.171 55.1328C170.21 54.2891 170.23 53.7695 170.23 53.5742C170.23 52.3008 170.124 51.0312 169.913 49.7656C169.999 49.7109 170.085 49.6836 170.171 49.6836C170.28 49.6836 170.378 49.7109 170.464 49.7656C170.628 50.7734 170.898 51.6641 171.273 52.4375C171.655 53.2109 172.093 53.8242 172.585 54.2773C173.077 54.7227 173.585 55.0586 174.109 55.2852C174.64 55.5039 175.175 55.6133 175.714 55.6133C176.941 55.6133 177.882 55.2969 178.538 54.6641C179.202 54.0234 179.534 53.1797 179.534 52.1328C179.534 51.0781 179.288 50.2852 178.796 49.7539C178.312 49.2148 177.382 48.7773 176.007 48.4414C174.288 48.0117 172.945 47.3789 171.976 46.543C171.015 45.6992 170.534 44.5859 170.534 43.2031C170.534 42.4766 170.652 41.8281 170.886 41.2578C171.128 40.6797 171.437 40.2188 171.812 39.875C172.195 39.5234 172.64 39.2344 173.148 39.0078C173.655 38.7734 174.155 38.6133 174.648 38.5273C175.148 38.4336 175.655 38.3867 176.171 38.3867C177.718 38.3867 179.327 38.7461 180.999 39.4648C180.952 39.9258 180.929 40.4062 180.929 40.9062C180.929 42.0781 181.023 43.0195 181.21 43.7305C181.109 43.7695 181.023 43.7891 180.952 43.7891C180.874 43.7891 180.777 43.7695 180.659 43.7305Z" fill="black"/>
</g>
<defs>
<filter id="filter0_d_9_19" x="0.196091" y="38.3867" width="185.881" height="26.0938" filterUnits="userSpaceOnUse" color-interpolation-filters="sRGB">
<feFlood flood-opacity="0" result="BackgroundImageFix"/>
<feColorMatrix in="SourceAlpha" type="matrix" values="0 0 0 0 0 0 0 0 0 0 0 0 0 0 0 0 0 0 127 0" result="hardAlpha"/>
<feOffset dy="4"/>
<feGaussianBlur stdDeviation="2"/>
<feComposite in2="hardAlpha" operator="out"/>
<feColorMatrix type="matrix" values="0 0 0 0 0 0 0 0 0 0 0 0 0 0 0 0 0 0 0.25 0"/>
<feBlend mode="normal" in2="BackgroundImageFix" result="effect1_dropShadow_9_19"/>
<feBlend mode="normal" in="SourceGraphic" in2="effect1_dropShadow_9_19" result="shape"/>
</filter>
</defs>
</svg>
